<mxfile host="app.diagrams.net" modified="2024-07-08T08:12:22.203Z" agent="Mozilla/5.0 (Linux; Android 10; K) AppleWebKit/537.36 (KHTML, like Gecko) Chrome/126.0.0.0 Safari/537.36" etag="9Ag3nGJJKLaRmYVATMVW" version="24.6.4" type="github">
  <diagram name="Page-1" id="ZEC1BKXkmVrY2c9UGJkW">
    <mxGraphModel dx="774" dy="1536" grid="1" gridSize="10" guides="1" tooltips="1" connect="1" arrows="1" fold="1" page="1" pageScale="1" pageWidth="850" pageHeight="1100" background="#000000" math="0" shadow="0">
      <root>
        <mxCell id="0" />
        <mxCell id="1" parent="0" />
      </root>
    </mxGraphModel>
  </diagram>
</mxfile>
